<svg width="15" height="15" viewBox="0 0 15 15" fill="none" xmlns="http://www.w3.org/2000/svg">
<path fill-rule="evenodd" clip-rule="evenodd" d="M7.50826 9.44514L12.3693 14.3062C12.6273 14.5642 12.9771 14.7091 13.3419 14.7091C13.7067 14.7091 14.0566 14.5642 14.3145 14.3062C14.5725 14.0483 14.7174 13.6984 14.7174 13.3336C14.7174 12.9689 14.5725 12.619 14.3145 12.3611L9.4516 7.49998L14.3136 2.6389C14.4413 2.51117 14.5425 2.35956 14.6116 2.19271C14.6806 2.02585 14.7162 1.84703 14.7161 1.66645C14.7161 1.48586 14.6805 1.30706 14.6113 1.14024C14.5422 0.973416 14.4409 0.821849 14.3131 0.694187C14.1854 0.566526 14.0338 0.465271 13.8669 0.396205C13.7001 0.327138 13.5213 0.291612 13.3407 0.291654C13.1601 0.291697 12.9813 0.327307 12.8145 0.396453C12.6477 0.465598 12.4961 0.566924 12.3684 0.694646L7.50826 5.55573L2.64718 0.694646C2.5204 0.563261 2.36873 0.45844 2.20101 0.3863C2.03329 0.314159 1.85288 0.276144 1.67031 0.274472C1.48774 0.2728 1.30666 0.307504 1.13765 0.376561C0.968633 0.445617 0.815064 0.547643 0.685901 0.676684C0.556739 0.805725 0.454569 0.959198 0.385353 1.12815C0.316137 1.2971 0.281261 1.47814 0.282761 1.66071C0.284261 1.84328 0.322106 2.02373 0.394088 2.19151C0.46607 2.3593 0.570748 2.51108 0.702013 2.63798L5.56493 7.49998L0.70293 12.362C0.571665 12.4889 0.466987 12.6407 0.395005 12.8084C0.323023 12.9762 0.285178 13.1567 0.283678 13.3392C0.282178 13.5218 0.317053 13.7029 0.386269 13.8718C0.455485 14.0408 0.557655 14.1942 0.686818 14.3233C0.815981 14.4523 0.96955 14.5543 1.13856 14.6234C1.30758 14.6925 1.48865 14.7272 1.67122 14.7255C1.85379 14.7238 2.0342 14.6858 2.20192 14.6137C2.36964 14.5415 2.52132 14.4367 2.6481 14.3053L7.50826 9.44514Z" fill="white"/>
</svg>
