<svg width="21" height="17" viewBox="0 0 21 17" fill="none" xmlns="http://www.w3.org/2000/svg">
<path d="M6.48 13L9 11.1625L11.475 13L10.53 10.025L13.05 8.1H9.99L9 5.125L8.01 8.1H4.95L7.425 10.025L6.48 13ZM1.8 16.5C1.305 16.5 0.8814 16.3288 0.5292 15.9864C0.177 15.644 0.0006 15.2318 0 14.75L0 11.7969C0 11.6365 0.0524999 11.4979 0.1575 11.3812C0.2625 11.2646 0.3975 11.1917 0.5625 11.1625C0.9225 11.0458 1.2189 10.8344 1.4517 10.5281C1.6845 10.2219 1.8006 9.87917 1.8 9.5C1.8 9.12083 1.6839 8.77812 1.4517 8.47187C1.2195 8.16562 0.9231 7.95417 0.5625 7.8375C0.3975 7.80833 0.2625 7.73542 0.1575 7.61875C0.0524999 7.50208 0 7.36354 0 7.20312L0 4.25C0 3.76875 0.1764 3.35692 0.5292 3.0145C0.882 2.67208 1.3056 2.50058 1.8 2.5L16.2 2.5C16.695 2.5 17.1189 2.6715 17.4717 3.0145C17.8245 3.3575 18.0006 3.76933 18 4.25V7.20312C18 7.36354 17.9475 7.50208 17.8425 7.61875C17.7375 7.73542 17.6025 7.80833 17.4375 7.8375C17.0775 7.95417 16.7814 8.16562 16.5492 8.47187C16.317 8.77812 16.2006 9.12083 16.2 9.5C16.2 9.87917 16.3164 10.2219 16.5492 10.5281C16.782 10.8344 17.0781 11.0458 17.4375 11.1625C17.6025 11.1917 17.7375 11.2646 17.8425 11.3812C17.9475 11.4979 18 11.6365 18 11.7969V14.75C18 15.2312 17.8239 15.6434 17.4717 15.9864C17.1195 16.3294 16.6956 16.5006 16.2 16.5H1.8Z" fill="#A66CFF"/>
<path d="M1.5 13.7506L1.5 13.75L1.5 10.7969C1.5 10.5159 1.59624 10.2575 1.78585 10.0468C1.96129 9.85183 2.18455 9.73012 2.43504 9.67791C2.68408 9.5918 2.8874 9.44424 3.05365 9.22554L3.4517 9.52812L3.05365 9.22554C3.22119 9.00514 3.30042 8.76868 3.3 8.50079L3.3 8.5C3.3 8.2315 3.22054 7.99457 3.05327 7.77396L3.4517 7.47187L3.05327 7.77396C2.88781 7.55573 2.68478 7.40825 2.43521 7.32212C2.18466 7.26993 1.96133 7.14821 1.78585 6.95323C1.59624 6.74255 1.5 6.48406 1.5 6.20312L1.5 3.25C1.5 2.6303 1.73351 2.08999 2.18097 1.65571C2.6275 1.22231 3.17601 1.00074 3.79941 1L3.8 1L18.2 1C18.8243 1 19.3735 1.22166 19.8202 1.656C20.2674 2.09078 20.5008 2.63113 20.5 3.25062M1.5 13.7506L20 6.20312C20 6.36354 19.9475 6.50208 19.8425 6.61875C19.7375 6.73542 19.6025 6.80833 19.4375 6.8375M1.5 13.7506C1.50077 14.3702 1.73391 14.9105 2.18066 15.3449C2.62699 15.7788 3.17595 16 3.8 16L18.1994 16M1.5 13.7506L18.1994 16M20.5 3.25062L20 3.25H20.5V3.25062ZM20.5 3.25062V6.20312C20.5 6.48406 20.4038 6.74255 20.2141 6.95323C20.0387 7.14816 19.8154 7.26988 19.565 7.32208M19.565 7.32208C19.5738 7.31903 19.5827 7.31605 19.5916 7.31315L19.4375 6.8375M19.565 7.32208C19.3161 7.40815 19.1132 7.55557 18.9476 7.77396C18.7802 7.99475 18.7004 8.23196 18.7 8.50068M19.565 7.32208C19.5516 7.32488 19.5381 7.32747 19.5245 7.32987L19.4375 6.8375M19.4375 6.8375L18.7 8.50068M18.7 8.50068C18.7001 8.76857 18.7797 9.00512 18.9472 9.22554C19.1136 9.44439 19.3167 9.5919 19.5651 9.67795C19.8155 9.73017 20.0387 9.85187 20.2141 10.0468C20.4038 10.2575 20.5 10.5159 20.5 10.7969V13.75C20.5 14.3694 20.267 14.9097 19.8205 15.3446C19.374 15.7795 18.8243 16.0007 18.1994 16M18.7 8.50068L18.1994 16M11.298 9.76104L11.0027 9.54175L10.7054 9.75849L9.41857 10.6968L9.90154 9.17637L10.007 8.84426L9.73197 8.63032L8.40727 7.6L10.01 7.6H10.3706L10.4844 7.25787L11 5.70853L11.5156 7.25787L11.6294 7.6H11.99H13.5718L12.2265 8.62766L11.947 8.84117L12.0535 9.17637L12.5296 10.6754L11.298 9.76104Z" stroke="white"/>
</svg>
