<svg width="16" height="17" viewBox="0 0 16 17" fill="none" xmlns="http://www.w3.org/2000/svg">
<circle cx="8" cy="8.49998" r="5.5" transform="rotate(45 8 8.49998)" fill="white"/>
<path d="M10.6191 6.40708C10.6262 6.26104 10.575 6.12387 10.4769 6.0257C10.3787 5.92753 10.2415 5.87639 10.0955 5.88352L7.15594 6.02793C7.00973 6.03515 6.86664 6.10016 6.75815 6.20865C6.64965 6.31714 6.58464 6.46024 6.57742 6.60645C6.5702 6.75266 6.62136 6.89001 6.71964 6.98829C6.81792 7.08657 6.95527 7.13773 7.10148 7.1305L8.71039 7.0513L5.56562 10.1961C5.45716 10.3045 5.39218 10.4476 5.38496 10.5937C5.37774 10.7399 5.42888 10.8772 5.52713 10.9755C5.62538 11.0737 5.76269 11.1248 5.90885 11.1176C6.05501 11.1104 6.19806 11.0454 6.30652 10.937L9.45128 7.79219L9.37183 9.40085C9.36825 9.47325 9.37897 9.54423 9.40337 9.60974C9.42777 9.67526 9.46538 9.73403 9.51404 9.78269C9.5627 9.83136 9.62147 9.86896 9.68699 9.89336C9.75251 9.91776 9.82349 9.92848 9.89588 9.92491C9.96828 9.92133 10.0407 9.90353 10.1089 9.87252C10.1772 9.84152 10.24 9.79791 10.2937 9.74419C10.3474 9.69047 10.391 9.62769 10.422 9.55943C10.453 9.49118 10.4708 9.41879 10.4744 9.34639L10.6191 6.40708Z" fill="#49109B"/>
</svg>
