<svg width="51" height="30" viewBox="0 0 51 30" fill="none" xmlns="http://www.w3.org/2000/svg">
<path d="M14.75 27.5V25.375C14.75 22.5571 15.8694 19.8546 17.862 17.862C19.8546 15.8694 22.5571 14.75 25.375 14.75M25.375 14.75C28.1929 14.75 30.8954 15.8694 32.888 17.862C34.8806 19.8546 36 22.5571 36 25.375V27.5M25.375 14.75C27.0658 14.75 28.6873 14.0784 29.8828 12.8828C31.0784 11.6873 31.75 10.0658 31.75 8.375C31.75 6.68424 31.0784 5.06274 29.8828 3.86719C28.6873 2.67165 27.0658 2 25.375 2C23.6842 2 22.0627 2.67165 20.8672 3.86719C19.6716 5.06274 19 6.68424 19 8.375C19 10.0658 19.6716 11.6873 20.8672 12.8828C22.0627 14.0784 23.6842 14.75 25.375 14.75ZM2 27.5V25.375C2 23.6842 2.67165 22.0627 3.86719 20.8672C5.06274 19.6716 6.68424 19 8.375 19M8.375 19C9.50217 19 10.5832 18.5522 11.3802 17.7552C12.1772 16.9582 12.625 15.8772 12.625 14.75C12.625 13.6228 12.1772 12.5418 11.3802 11.7448C10.5832 10.9478 9.50217 10.5 8.375 10.5C7.24783 10.5 6.16683 10.9478 5.3698 11.7448C4.57277 12.5418 4.125 13.6228 4.125 14.75C4.125 15.8772 4.57277 16.9582 5.3698 17.7552C6.16683 18.5522 7.24783 19 8.375 19ZM48.75 27.5V25.375C48.75 23.6842 48.0784 22.0627 46.8828 20.8672C45.6873 19.6716 44.0658 19 42.375 19M42.375 19C43.5022 19 44.5832 18.5522 45.3802 17.7552C46.1772 16.9582 46.625 15.8772 46.625 14.75C46.625 13.6228 46.1772 12.5418 45.3802 11.7448C44.5832 10.9478 43.5022 10.5 42.375 10.5C41.2478 10.5 40.1668 10.9478 39.3698 11.7448C38.5728 12.5418 38.125 13.6228 38.125 14.75C38.125 15.8772 38.5728 16.9582 39.3698 17.7552C40.1668 18.5522 41.2478 19 42.375 19Z" stroke="white" stroke-width="4" stroke-linecap="round" stroke-linejoin="round"/>
</svg>
