<svg width="19" height="18" viewBox="0 0 19 18" fill="none" xmlns="http://www.w3.org/2000/svg">
<path d="M4.5 13.5V8.5V13.5ZM8.5 13.5V5.5V13.5ZM12.5 13.5V11.5V13.5ZM14.5 1.5H2.5C1.96957 1.5 1.46086 1.71071 1.08579 2.08579C0.710714 2.46086 0.5 2.96957 0.5 3.5V15.5C0.5 16.0304 0.710714 16.5391 1.08579 16.9142C1.46086 17.2893 1.96957 17.5 2.5 17.5H14.5C15.0304 17.5 15.5391 17.2893 15.9142 16.9142C16.2893 16.5391 16.5 16.0304 16.5 15.5V3.5C16.5 2.96957 16.2893 2.46086 15.9142 2.08579C15.5391 1.71071 15.0304 1.5 14.5 1.5Z" fill="#A66CFF"/>
<path d="M6.5 12.5V7.5M10.5 12.5V4.5M14.5 12.5V10.5M16.5 0.5H4.5C3.96957 0.5 3.46086 0.710714 3.08579 1.08579C2.71071 1.46086 2.5 1.96957 2.5 2.5V14.5C2.5 15.0304 2.71071 15.5391 3.08579 15.9142C3.46086 16.2893 3.96957 16.5 4.5 16.5H16.5C17.0304 16.5 17.5391 16.2893 17.9142 15.9142C18.2893 15.5391 18.5 15.0304 18.5 14.5V2.5C18.5 1.96957 18.2893 1.46086 17.9142 1.08579C17.5391 0.710714 17.0304 0.5 16.5 0.5Z" stroke="white" stroke-linecap="round" stroke-linejoin="round"/>
</svg>
